Genre:Comedy | Sci-Fi
Language:English
IMDb:http://www.imdb.com/title/tt1092026/
Source:EXTENDED.1080p.BluRay.X264-AVCHD Thanks!

Format : MPEG-4
Format profile : Base Media
Codec ID : isom
File size : 2.59 GiB
Duration : 1h 49mn
Overall bit rate : 3 390 Kbps

Video
ID : 1
Format : AVC
Format/Info : Advanced Video Codec
Format profile : High@L4.1
Format settings, CABAC : Yes
Format settings, ReFrames : 3 frames
Codec ID : avc1
Codec ID/Info : Advanced Video Coding
Duration : 1h 49mn
Bit rate mode : Variable
Bit rate : 3 000 Kbps
Maximum bit rate : 14.5 Mbps
Width : 1 280 pixels
Height : 544 pixels
Display aspect ratio : 2.35:1
Frame rate mode : Constant
Frame rate : 23.976 fps
Color space : YUV
Chroma subsampling : 4:2:0
Bit depth : 8 bits
Scan type : Progressive
Bits/(Pixel*Frame) : 0.180
Stream size : 2.25 GiB (87%)
Writing library : x264

Audio
ID : 2
Format : AAC
Format/Info : Advanced Audio Codec
Format version : Version 4
Format profile : LC
Format settings, SBR : No
Codec ID : 40
Duration : 1h 49mn
Bit rate mode : Variable
Bit rate : 444 Kbps
Maximum bit rate : 529 Kbps
Channel(s) : 6 channels
Channel positions : Front: L C R, Side: L R, LFE
Sampling rate : 48.0 KHz
Stream size : 347 MiB (13%)


Plot:
Two British comic-book geeks traveling across the U.S. encounter an alien outside Area 51
 
http://leetleech.org/images/19938990283305226479.png
 
http://leetleech.org/images/83858665050098752755.png
 
http://leetleech.org/images/85614486905023120279.png
 
http://leetleech.org/images/40161094226635097856.png
 
http://leetleech.org/images/53729369377311629668.png